<svg width="113" height="82" viewBox="0 0 113 82" fill="none" xmlns="http://www.w3.org/2000/svg">
<path d="M19.916 68.908C17.3507 68.908 15.288 68.2667 13.728 66.984C12.2027 65.736 11.44 63.7427 11.44 61.004C11.44 59.1667 11.544 56.8613 11.752 54.088C11.7867 53.7067 11.856 52.8053 11.96 51.384C12.064 49.928 12.0813 48.524 12.012 47.172C11.9773 45.404 11.44 44.156 10.4 43.428C9.39467 42.6653 7.78267 42.284 5.564 42.284C4.35067 42.284 2.912 42.388 1.248 42.596C0.797333 42.2493 0.572 41.7467 0.572 41.088C0.572 40.88 0.606667 40.6027 0.676 40.256C2.61733 39.632 4.108 39.06 5.148 38.54C6.22267 37.9853 6.968 37.4307 7.384 36.876C7.83467 36.2867 8.06 35.576 8.06 34.744C8.06 34.224 7.97333 33.5653 7.8 32.768C7.62667 31.9707 7.45333 31.2773 7.28 30.688C7.10667 30.0987 6.98533 29.648 6.916 29.336C6.5 27.776 6.292 26.3547 6.292 25.072C6.292 19.5947 9.984 16.0933 17.368 14.568C17.6107 14.4987 18.0093 14.464 18.564 14.464C19.8467 14.464 20.9387 14.8107 21.84 15.504C22.776 16.1973 23.244 17.2027 23.244 18.52C23.244 18.832 23.1573 19.1267 22.984 19.404C22.8107 19.6467 22.5333 19.716 22.152 19.612C21.736 19.508 21.3373 19.2307 20.956 18.78C20.5053 18.364 20.02 18.052 19.5 17.844C18.98 17.6013 18.148 17.48 17.004 17.48C14.2307 17.48 12.168 18.0173 10.816 19.092C9.464 20.1667 8.788 21.7093 8.788 23.72C8.788 25.1413 9.1 26.736 9.724 28.504C10.4867 30.688 10.868 32.5427 10.868 34.068C10.868 35.0387 10.712 35.9573 10.4 36.824C10.088 37.6907 9.60267 38.592 8.944 39.528C10.4347 40.1867 11.5613 40.7587 12.324 41.244C13.1213 41.7293 13.7453 42.4053 14.196 43.272C14.6813 44.1387 14.924 45.3 14.924 46.756C14.924 48.0733 14.82 49.9453 14.612 52.372C14.3347 55.3533 14.196 58.196 14.196 60.9C14.196 62.9453 14.6293 64.3493 15.496 65.112C16.3973 65.8747 17.8013 66.256 19.708 66.256C20.2627 66.256 20.8 66.1867 21.32 66.048C21.84 65.944 22.3253 65.8227 22.776 65.684C22.9493 65.6493 23.2787 65.5627 23.764 65.424C24.284 65.2853 24.7867 65.216 25.272 65.216C25.7227 65.216 26.0867 65.2507 26.364 65.32C26.364 66.7067 25.8267 67.6427 24.752 68.128C23.712 68.648 22.1 68.908 19.916 68.908Z" fill="#0365BE"/>
<path d="M53.468 29.576C53.468 31.0667 53.5373 32.5227 53.676 33.944C53.8493 35.3307 54.1093 37.2893 54.456 39.82C55.1147 44.084 55.444 47.4813 55.444 50.012C55.444 50.532 55.34 50.844 55.132 50.948C54.924 51.052 54.6813 51.104 54.404 51.104C54.1267 51.104 53.936 51.104 53.832 51.104C53.3467 51.104 52.9653 51.052 52.688 50.948C52.4107 50.8093 52.1853 50.4973 52.012 50.012L50.92 35.868C50.816 34.4467 50.6773 31.5867 50.504 27.288C49.0133 29.0213 47.54 30.3387 46.084 31.24C44.628 32.1067 43.1373 32.54 41.612 32.54C39.428 32.54 37.244 30.9973 35.06 27.912C35.164 28.432 35.216 29.1253 35.216 29.992C35.216 30.8587 35.216 31.3613 35.216 31.5L35.164 48.504C35.164 48.8507 34.9733 49.128 34.592 49.336C34.2453 49.5093 33.8813 49.596 33.5 49.596C33.0147 49.596 32.668 49.4227 32.46 49.076C32.2867 48.6947 32.148 48.192 32.044 47.568V40.288C32.044 39.1787 32.0787 37.9307 32.148 36.544C32.2173 35.1573 32.2693 34.1867 32.304 33.632C32.4773 31.2053 32.564 29.004 32.564 27.028C32.564 26.4387 32.46 25.884 32.252 25.364C32.044 24.8093 31.732 24.2027 31.316 23.544C30.9 22.8853 30.588 22.3133 30.38 21.828C30.2067 21.3427 30.12 20.8227 30.12 20.268C30.12 19.6093 30.4493 19.28 31.108 19.28C32.148 19.28 32.9973 19.6613 33.656 20.424C34.3147 21.152 35.0253 22.2613 35.788 23.752C36.4467 24.9653 37.0187 25.9187 37.504 26.612C37.9893 27.3053 38.6133 27.912 39.376 28.432C40.1387 28.9173 41.0573 29.16 42.132 29.16C43.692 29.2293 44.9747 28.9347 45.98 28.276C46.9853 27.5827 47.748 26.7507 48.268 25.78C48.788 24.8093 49.2907 23.6307 49.776 22.244C50.192 21.1 50.556 20.3027 50.868 19.852C51.18 19.3667 51.5613 19.176 52.012 19.28C53.052 19.2107 53.572 20.164 53.572 22.14C53.572 23.804 53.5547 25.0347 53.52 25.832L53.468 29.576ZM67.2179 51C66.7673 51.1733 66.3339 51.0693 65.9179 50.688C65.5366 50.3067 65.3286 49.7693 65.2939 49.076C65.1553 48.0707 64.9993 46.84 64.8259 45.384C64.6873 43.928 64.5833 42.8533 64.5139 42.16C64.4446 41.4667 64.2886 40.132 64.0459 38.156C63.8379 36.1453 63.6126 34.412 63.3699 32.956C63.3006 32.4707 63.0753 31.604 62.6939 30.356C61.6886 26.7853 61.1859 24.2027 61.1859 22.608C61.4286 22.2613 61.6713 22.088 61.9139 22.088C62.8153 22.088 63.7513 23.8907 64.7219 27.496C65.6926 31.1013 66.5073 35.1747 67.1659 39.716C67.8593 44.2227 68.2059 47.308 68.2059 48.972C68.2059 49.0413 68.2059 49.2667 68.2059 49.648C68.2059 49.9947 68.1193 50.2893 67.9459 50.532C67.8073 50.7747 67.5646 50.9307 67.2179 51Z" fill="#0361B4"/>
<path d="M90.464 62.856C88.6267 62.856 86.8933 62.596 85.264 62.076C83.6693 61.556 82.6467 60.6373 82.196 59.32C82.0573 58.8 82.1613 58.28 82.508 57.76C82.8893 57.2747 83.3573 57.032 83.912 57.032C84.1893 57.032 84.4147 57.1013 84.588 57.24C84.796 57.3787 85.0387 57.604 85.316 57.916C85.9747 58.6093 86.72 59.164 87.552 59.58C88.4187 59.996 89.736 60.204 91.504 60.204C94.3467 60.204 96.4787 59.4933 97.9 58.072C99.3213 56.6507 100.032 54.276 100.032 50.948C100.032 49.3533 99.928 47.9493 99.72 46.736C99.512 45.488 99.2347 44.1707 98.888 42.784C98.472 41.224 98.264 40.0453 98.264 39.248C98.264 38.312 98.5067 37.4107 98.992 36.544C99.512 35.6427 100.396 34.672 101.644 33.632C100.327 32.6613 99.408 31.6387 98.888 30.564C98.368 29.4547 98.108 28.0853 98.108 26.456C98.108 25.208 98.2467 23.5613 98.524 21.516C98.628 20.8227 98.68 20.1813 98.68 19.592C98.68 14.8427 96.028 12.468 90.724 12.468C86.876 12.468 84.952 13.1787 84.952 14.6C84.952 15.0507 85.056 15.3627 85.264 15.536C85.472 15.7093 85.784 15.8653 86.2 16.004C86.5813 16.1427 86.8413 16.2813 86.98 16.42C87.1533 16.524 87.24 16.732 87.24 17.044C87.24 17.356 87.136 17.5813 86.928 17.72C86.7547 17.824 86.46 17.876 86.044 17.876C85.1773 17.876 84.3627 17.5467 83.6 16.888C82.8373 16.1947 82.456 15.328 82.456 14.288C82.456 12.7973 83.0973 11.7573 84.38 11.168C85.6627 10.544 87.5867 10.232 90.152 10.232C93.4453 10.232 96.08 10.96 98.056 12.416C100.032 13.872 101.02 16.004 101.02 18.812L100.968 19.696C100.795 21.7067 100.708 23.284 100.708 24.428C100.708 26.2653 100.916 27.7213 101.332 28.796C101.748 29.836 102.459 30.5987 103.464 31.084C104.504 31.5693 105.925 31.812 107.728 31.812C108.976 31.812 110.224 31.7427 111.472 31.604C111.68 31.7773 111.836 32.0373 111.94 32.384C112.044 32.696 112.096 33.0253 112.096 33.372C112.096 34.1 111.94 34.4987 111.628 34.568L104.816 34.984C103.949 35.0533 103.239 35.4173 102.684 36.076C102.129 36.7347 101.852 37.6707 101.852 38.884C101.852 39.6813 101.939 40.4267 102.112 41.12C102.459 43.2 102.701 44.8813 102.84 46.164C102.979 47.412 103.048 49.0067 103.048 50.948C103.048 53.444 102.493 55.5933 101.384 57.396C100.275 59.1987 98.7667 60.5507 96.86 61.452C94.9533 62.388 92.8213 62.856 90.464 62.856Z" fill="#0365BE"/>
</svg>
